<svg width="100%" height="100%" viewBox="0 0 32 32" fill="none" xmlns="http://www.w3.org/2000/svg">
<path fill-rule="evenodd" clip-rule="evenodd" d="M13.3327 12.7098V19.2901L18.8163 16L13.3327 12.7098ZM10.666 21.6451C10.666 22.6815 11.7966 23.3216 12.6853 22.7884L22.0938 17.1433C22.957 16.6255 22.957 15.3745 22.0938 14.8567L12.6853 9.2116C11.7966 8.67838 10.666 9.31854 10.666 10.3549V21.6451Z" fill="white"/>
<path fill-rule="evenodd" clip-rule="evenodd" d="M26.666 23.3706V8.6296C26.666 7.57415 26.0963 6.9152 25.4709 6.72333C23.3228 6.06428 20.0291 5.33341 15.9993 5.33341C11.9696 5.33341 8.67591 6.06428 6.52775 6.72333C5.90238 6.9152 5.33268 7.57415 5.33268 8.6296V23.3706C5.33268 24.4259 5.90238 25.085 6.52775 25.2769C8.67591 25.9358 11.9696 26.6667 15.9993 26.6667C20.0291 26.6667 23.3228 25.9358 25.4709 25.2769C26.0963 25.085 26.666 24.4259 26.666 23.3706ZM5.74562 4.17395C3.81434 4.76645 2.66602 6.60948 2.66602 8.6296V23.3706C2.66602 25.3907 3.81434 27.2337 5.74562 27.8262C8.09006 28.5454 11.6507 29.3334 15.9993 29.3334C20.348 29.3334 23.9087 28.5454 26.2531 27.8262C28.1844 27.2337 29.3327 25.3907 29.3327 23.3706V8.6296C29.3327 6.60948 28.1844 4.76645 26.2531 4.17395C23.9087 3.45468 20.348 2.66675 15.9993 2.66675C11.6507 2.66675 8.09006 3.45468 5.74562 4.17395Z" fill="white"/>
</svg>
