<svg width="100%" height="100%"  viewBox="0 0 16 17" fill="none" xmlns="http://www.w3.org/2000/svg">
<path d="M8.66732 10.3333H1.33398C1.06065 10.3333 0.833984 10.1066 0.833984 9.83325V4.49992C0.833984 2.75325 2.25398 1.33325 4.00065 1.33325H10.0007C10.274 1.33325 10.5007 1.55992 10.5007 1.83325V8.49992C10.5007 9.51325 9.68065 10.3333 8.66732 10.3333ZM1.83398 9.33325H8.66732C9.12732 9.33325 9.50065 8.95992 9.50065 8.49992V2.33325H4.00065C2.80732 2.33325 1.83398 3.30659 1.83398 4.49992V9.33325Z" fill="#0C68F4"/>
<path d="M12.6673 14.3333H12.0007C11.7273 14.3333 11.5007 14.1066 11.5007 13.8333C11.5007 13.3733 11.1273 12.9999 10.6673 12.9999C10.2073 12.9999 9.83398 13.3733 9.83398 13.8333C9.83398 14.1066 9.60732 14.3333 9.33398 14.3333H6.66732C6.39398 14.3333 6.16732 14.1066 6.16732 13.8333C6.16732 13.3733 5.79398 12.9999 5.33398 12.9999C4.87398 12.9999 4.50065 13.3733 4.50065 13.8333C4.50065 14.1066 4.27398 14.3333 4.00065 14.3333H3.33398C1.95398 14.3333 0.833984 13.2133 0.833984 11.8333V9.83325C0.833984 9.55992 1.06065 9.33325 1.33398 9.33325H8.66732C9.12732 9.33325 9.50065 8.95992 9.50065 8.49992V3.83325C9.50065 3.55992 9.72732 3.33325 10.0007 3.33325H11.2273C11.8873 3.33325 12.494 3.6866 12.8207 4.25993L13.9607 6.25326C14.0473 6.40659 14.0473 6.59992 13.9607 6.75326C13.874 6.90659 13.7073 6.99992 13.5273 6.99992H12.6673C12.574 6.99992 12.5007 7.07325 12.5007 7.16659V9.16659C12.5007 9.25992 12.574 9.33325 12.6673 9.33325H14.6673C14.9407 9.33325 15.1673 9.55992 15.1673 9.83325V11.8333C15.1673 13.2133 14.0473 14.3333 12.6673 14.3333ZM12.434 13.3333H12.6673C13.494 13.3333 14.1673 12.6599 14.1673 11.8333V10.3333H12.6673C12.0273 10.3333 11.5007 9.80659 11.5007 9.16659V7.16659C11.5007 6.52659 12.0207 5.99992 12.6673 5.99992L11.954 4.75326C11.8073 4.49326 11.5273 4.33325 11.2273 4.33325H10.5007V8.49992C10.5007 9.51325 9.68065 10.3333 8.66732 10.3333H1.83398V11.8333C1.83398 12.6599 2.50732 13.3333 3.33398 13.3333H3.56732C3.78732 12.5666 4.49398 11.9999 5.33398 11.9999C6.17398 11.9999 6.88065 12.5666 7.10065 13.3333H8.90731C9.12731 12.5666 9.83399 11.9999 10.674 11.9999C11.514 11.9999 12.214 12.5666 12.434 13.3333Z" fill="#0C68F4"/>
<path d="M5.33333 15.6667C4.32 15.6667 3.5 14.8467 3.5 13.8333C3.5 12.82 4.32 12 5.33333 12C6.34667 12 7.16667 12.82 7.16667 13.8333C7.16667 14.8467 6.34667 15.6667 5.33333 15.6667ZM5.33333 13C4.87333 13 4.5 13.3733 4.5 13.8333C4.5 14.2933 4.87333 14.6667 5.33333 14.6667C5.79333 14.6667 6.16667 14.2933 6.16667 13.8333C6.16667 13.3733 5.79333 13 5.33333 13Z" fill="#0C68F4"/>
<path d="M10.6673 15.6667C9.65398 15.6667 8.83398 14.8467 8.83398 13.8333C8.83398 12.82 9.65398 12 10.6673 12C11.6807 12 12.5007 12.82 12.5007 13.8333C12.5007 14.8467 11.6807 15.6667 10.6673 15.6667ZM10.6673 13C10.2073 13 9.83398 13.3733 9.83398 13.8333C9.83398 14.2933 10.2073 14.6667 10.6673 14.6667C11.1273 14.6667 11.5007 14.2933 11.5007 13.8333C11.5007 13.3733 11.1273 13 10.6673 13Z" fill="#0C68F4"/>
<path d="M14.6667 10.3333H12.6667C12.0267 10.3333 11.5 9.80667 11.5 9.16667V7.16667C11.5 6.52667 12.0267 6 12.6667 6H13.5267C13.7067 6 13.8733 6.09334 13.96 6.25334L15.1 8.25334C15.14 8.32667 15.1667 8.41333 15.1667 8.5V9.83333C15.1667 10.1067 14.94 10.3333 14.6667 10.3333ZM12.6667 7C12.5733 7 12.5 7.07333 12.5 7.16667V9.16667C12.5 9.26 12.5733 9.33333 12.6667 9.33333H14.1667V8.63334L13.2333 7H12.6667Z" fill="#0C68F4"/>
</svg>
