<svg width="100%" height="100%" viewBox="0 0 60 68" fill="none" xmlns="http://www.w3.org/2000/svg">
<path d="M27.1641 30.2087C26.8664 30.2087 26.6251 30.45 26.6251 30.7477C26.6251 31.0454 26.8664 31.2866 27.1641 31.2866V30.2087ZM27.1641 31.2866H40.4028V30.2087H27.1641V31.2866ZM41.804 29.8854V17.3735H40.7261V29.8854H41.804ZM40.4028 31.2866C41.1767 31.2866 41.804 30.6593 41.804 29.8854H40.7261C40.7261 30.064 40.5814 30.2087 40.4028 30.2087V31.2866Z" fill="#0C68F4"/>
<path d="M22.6738 36.0049C22.3762 36.0049 22.1349 36.2462 22.1349 36.5439C22.1349 36.8415 22.3762 37.0828 22.6738 37.0828V36.0049ZM22.6738 37.0828H54.3747V36.0049H22.6738V37.0828ZM55.7759 35.6815V30.729H54.6981V35.6815H55.7759ZM54.3747 37.0828C55.1486 37.0828 55.7759 36.4554 55.7759 35.6815H54.6981C54.6981 35.8601 54.5533 36.0049 54.3747 36.0049V37.0828Z" fill="#0C68F4"/>
<path d="M21.8457 41.6542C21.548 41.6542 21.3068 41.8955 21.3068 42.1931C21.3068 42.4908 21.548 42.7321 21.8457 42.7321V41.6542ZM21.8457 42.7321H53.8274V41.6542H21.8457V42.7321Z" fill="#0C68F4"/>
<path d="M26.4551 47.3273C26.1574 47.3273 25.9161 47.5686 25.9161 47.8662C25.9161 48.1639 26.1574 48.4052 26.4551 48.4052V47.3273ZM26.4551 48.4052H42.2686V47.3273H26.4551V48.4052ZM42.5919 48.7285V54.2725H43.6698V48.7285H42.5919ZM43.9932 55.6737H47.3885V54.5958H43.9932V55.6737ZM42.5919 54.2725C42.5919 55.0464 43.2193 55.6737 43.9932 55.6737V54.5958C43.8146 54.5958 43.6698 54.451 43.6698 54.2725H42.5919ZM42.2686 48.4052C42.4472 48.4052 42.5919 48.5499 42.5919 48.7285H43.6698C43.6698 47.9546 43.0425 47.3273 42.2686 47.3273V48.4052Z" fill="#0C68F4"/>
<mask id="path-5-inside-1_4205_3046" fill="white">
<path d="M44.381 14.6353C44.381 16.3213 43.0142 17.6881 41.3282 17.6881C39.6422 17.6881 38.2754 16.3213 38.2754 14.6353C38.2754 12.9493 39.6422 11.5825 41.3282 11.5825C43.0142 11.5825 44.381 12.9493 44.381 14.6353ZM39.4965 14.6353C39.4965 15.6469 40.3166 16.467 41.3282 16.467C42.3398 16.467 43.1599 15.6469 43.1599 14.6353C43.1599 13.6237 42.3398 12.8036 41.3282 12.8036C40.3166 12.8036 39.4965 13.6237 39.4965 14.6353Z"/>
</mask>
<path d="M44.381 14.6353C44.381 16.3213 43.0142 17.6881 41.3282 17.6881C39.6422 17.6881 38.2754 16.3213 38.2754 14.6353C38.2754 12.9493 39.6422 11.5825 41.3282 11.5825C43.0142 11.5825 44.381 12.9493 44.381 14.6353ZM39.4965 14.6353C39.4965 15.6469 40.3166 16.467 41.3282 16.467C42.3398 16.467 43.1599 15.6469 43.1599 14.6353C43.1599 13.6237 42.3398 12.8036 41.3282 12.8036C40.3166 12.8036 39.4965 13.6237 39.4965 14.6353Z" fill="#F45E0C" stroke="#F45E0C" stroke-width="0.472752" mask="url(#path-5-inside-1_4205_3046)"/>
<mask id="path-6-inside-2_4205_3046" fill="white">
<path d="M58.3263 27.7813C58.3263 29.4673 56.9595 30.8341 55.2735 30.8341C53.5875 30.8341 52.2207 29.4673 52.2207 27.7813C52.2207 26.0953 53.5875 24.7285 55.2735 24.7285C56.9595 24.7285 58.3263 26.0953 58.3263 27.7813ZM53.4418 27.7813C53.4418 28.7929 54.2619 29.613 55.2735 29.613C56.2851 29.613 57.1052 28.7929 57.1052 27.7813C57.1052 26.7697 56.2851 25.9496 55.2735 25.9496C54.2619 25.9496 53.4418 26.7697 53.4418 27.7813Z"/>
</mask>
<path d="M58.3263 27.7813C58.3263 29.4673 56.9595 30.8341 55.2735 30.8341C53.5875 30.8341 52.2207 29.4673 52.2207 27.7813C52.2207 26.0953 53.5875 24.7285 55.2735 24.7285C56.9595 24.7285 58.3263 26.0953 58.3263 27.7813ZM53.4418 27.7813C53.4418 28.7929 54.2619 29.613 55.2735 29.613C56.2851 29.613 57.1052 28.7929 57.1052 27.7813C57.1052 26.7697 56.2851 25.9496 55.2735 25.9496C54.2619 25.9496 53.4418 26.7697 53.4418 27.7813Z" fill="#F45E0C" stroke="#F45E0C" stroke-width="0.472752" mask="url(#path-6-inside-2_4205_3046)"/>
<mask id="path-7-inside-3_4205_3046" fill="white">
<path d="M59.7443 42.0548C59.7443 43.7408 58.3775 45.1075 56.6915 45.1075C55.0055 45.1075 53.6387 43.7408 53.6387 42.0548C53.6387 40.3687 55.0055 39.002 56.6915 39.002C58.3775 39.002 59.7443 40.3687 59.7443 42.0548ZM54.8598 42.0548C54.8598 43.0664 55.6799 43.8864 56.6915 43.8864C57.7031 43.8864 58.5231 43.0664 58.5231 42.0548C58.5231 41.0431 57.7031 40.2231 56.6915 40.2231C55.6799 40.2231 54.8598 41.0431 54.8598 42.0548Z"/>
</mask>
<path d="M59.7443 42.0548C59.7443 43.7408 58.3775 45.1075 56.6915 45.1075C55.0055 45.1075 53.6387 43.7408 53.6387 42.0548C53.6387 40.3687 55.0055 39.002 56.6915 39.002C58.3775 39.002 59.7443 40.3687 59.7443 42.0548ZM54.8598 42.0548C54.8598 43.0664 55.6799 43.8864 56.6915 43.8864C57.7031 43.8864 58.5231 43.0664 58.5231 42.0548C58.5231 41.0431 57.7031 40.2231 56.6915 40.2231C55.6799 40.2231 54.8598 41.0431 54.8598 42.0548Z" fill="#F45E0C" stroke="#F45E0C" stroke-width="0.472752" mask="url(#path-7-inside-3_4205_3046)"/>
<mask id="path-8-inside-4_4205_3046" fill="white">
<path d="M53.3634 55.0555C53.3634 56.7415 51.9966 58.1083 50.3106 58.1083C48.6246 58.1083 47.2578 56.7415 47.2578 55.0555C47.2578 53.3695 48.6246 52.0027 50.3106 52.0027C51.9966 52.0027 53.3634 53.3695 53.3634 55.0555ZM48.4789 55.0555C48.4789 56.0671 49.299 56.8872 50.3106 56.8872C51.3222 56.8872 52.1423 56.0671 52.1423 55.0555C52.1423 54.0439 51.3222 53.2238 50.3106 53.2238C49.299 53.2238 48.4789 54.0439 48.4789 55.0555Z"/>
</mask>
<path d="M53.3634 55.0555C53.3634 56.7415 51.9966 58.1083 50.3106 58.1083C48.6246 58.1083 47.2578 56.7415 47.2578 55.0555C47.2578 53.3695 48.6246 52.0027 50.3106 52.0027C51.9966 52.0027 53.3634 53.3695 53.3634 55.0555ZM48.4789 55.0555C48.4789 56.0671 49.299 56.8872 50.3106 56.8872C51.3222 56.8872 52.1423 56.0671 52.1423 55.0555C52.1423 54.0439 51.3222 53.2238 50.3106 53.2238C49.299 53.2238 48.4789 54.0439 48.4789 55.0555Z" fill="#F45E0C" stroke="#F45E0C" stroke-width="0.472752" mask="url(#path-8-inside-4_4205_3046)"/>
<g filter="url(#filter0_d_4205_3046)">
<path d="M35.4095 58.1486H8.25688C6.82814 58.1486 5.66992 56.9904 5.66992 55.5616V20.5458C5.66992 19.6727 6.11029 18.8586 6.84097 18.3807L30.1716 3.123C30.9791 2.59494 32.0133 2.56009 32.8545 3.0326L48.9476 12.0726" stroke="#0C68F4" stroke-width="1.72464" stroke-linecap="round"/>
</g>
<defs>
<filter id="filter0_d_4205_3046" x="0.806641" y="1.83887" width="53.0039" height="65.1721" filterUnits="userSpaceOnUse" color-interpolation-filters="sRGB">
<feFlood flood-opacity="0" result="BackgroundImageFix"/>
<feColorMatrix in="SourceAlpha" type="matrix" values="0 0 0 0 0 0 0 0 0 0 0 0 0 0 0 0 0 0 127 0" result="hardAlpha"/>
<feOffset dy="4"/>
<feGaussianBlur stdDeviation="2"/>
<feComposite in2="hardAlpha" operator="out"/>
<feColorMatrix type="matrix" values="0 0 0 0 0 0 0 0 0 0 0 0 0 0 0 0 0 0 0.25 0"/>
<feBlend mode="normal" in2="BackgroundImageFix" result="effect1_dropShadow_4205_3046"/>
<feBlend mode="normal" in="SourceGraphic" in2="effect1_dropShadow_4205_3046" result="shape"/>
</filter>
</defs>
</svg>
