<svg width="100%" height="100%" viewBox="0 0 158 158" fill="none" xmlns="http://www.w3.org/2000/svg">
<g filter="url(#filter0_d_2315_43092)">
<g clip-path="url(#clip0_2315_43092)">
<rect x="21" y="17" width="120" height="120" rx="60" fill="white"/>
<path d="M73.8992 94.9C72.8992 94.9 71.9492 94.5 71.2492 93.8L57.0992 79.65C55.6492 78.2 55.6492 75.8 57.0992 74.35C58.5492 72.9 60.9492 72.9 62.3992 74.35L73.8992 85.85L99.5992 60.15C101.049 58.7 103.449 58.7 104.899 60.15C106.349 61.6 106.349 64 104.899 65.45L76.5492 93.8C75.8492 94.5 74.8992 94.9 73.8992 94.9Z" fill="#146C43"/>
</g>
</g>
<defs>
<filter id="filter0_d_2315_43092" x="0" y="0" width="158" height="158" filterUnits="userSpaceOnUse" color-interpolation-filters="sRGB">
<feFlood flood-opacity="0" result="BackgroundImageFix"/>
<feColorMatrix in="SourceAlpha" type="matrix" values="0 0 0 0 0 0 0 0 0 0 0 0 0 0 0 0 0 0 127 0" result="hardAlpha"/>
<feMorphology radius="1" operator="erode" in="SourceAlpha" result="effect1_dropShadow_2315_43092"/>
<feOffset dx="-2" dy="2"/>
<feGaussianBlur stdDeviation="10"/>
<feComposite in2="hardAlpha" operator="out"/>
<feColorMatrix type="matrix" values="0 0 0 0 0.443137 0 0 0 0 0.443137 0 0 0 0 0.443137 0 0 0 0.2 0"/>
<feBlend mode="normal" in2="BackgroundImageFix" result="effect1_dropShadow_2315_43092"/>
<feBlend mode="normal" in="SourceGraphic" in2="effect1_dropShadow_2315_43092" result="shape"/>
</filter>
<clipPath id="clip0_2315_43092">
<rect x="21" y="17" width="120" height="120" rx="60" fill="white"/>
</clipPath>
</defs>
</svg>
