<svg width="100%" height="100%" viewBox="0 0 516 100" fill="none" xmlns="http://www.w3.org/2000/svg">
<path d="M328 36H384" stroke="#78ABF9" stroke-width="1.5" stroke-linecap="round"/>
<rect x="387.5" y="1.5" width="69" height="69" rx="34.5" stroke="#0C68F4" stroke-width="3"/>
<path d="M442 30.5H402C401.18 30.5 400.5 29.82 400.5 29C400.5 28.18 401.18 27.5 402 27.5H442C442.82 27.5 443.5 28.18 443.5 29C443.5 29.82 442.82 30.5 442 30.5Z" fill="#0C68F4"/>
<path d="M414 46.5H410C409.18 46.5 408.5 45.82 408.5 45C408.5 44.18 409.18 43.5 410 43.5H414C414.82 43.5 415.5 44.18 415.5 45C415.5 45.82 414.82 46.5 414 46.5Z" fill="#0C68F4"/>
<path d="M427 46.5H419C418.18 46.5 417.5 45.82 417.5 45C417.5 44.18 418.18 43.5 419 43.5H427C427.82 43.5 428.5 44.18 428.5 45C428.5 45.82 427.82 46.5 427 46.5Z" fill="#0C68F4"/>
<path d="M433.12 54.5H410.88C402.92 54.5 400.5 52.1 400.5 44.22V27.78C400.5 19.9 402.92 17.5 410.88 17.5H433.1C441.06 17.5 443.48 19.9 443.48 27.78V44.2C443.5 52.1 441.08 54.5 433.12 54.5ZM410.88 20.5C404.6 20.5 403.5 21.58 403.5 27.78V44.2C403.5 50.4 404.6 51.48 410.88 51.48H433.1C439.38 51.48 440.48 50.4 440.48 44.2V27.78C440.48 21.58 439.38 20.5 433.1 20.5H410.88Z" fill="#0C68F4"/>
<path d="M393.779 90V79.8182H397.408C398.2 79.8182 398.856 79.9624 399.377 80.2507C399.897 80.5391 400.287 80.9335 400.545 81.4339C400.804 81.9311 400.933 82.4912 400.933 83.1143C400.933 83.7408 400.802 84.3042 400.54 84.8047C400.282 85.3018 399.891 85.6963 399.367 85.9879C398.846 86.2763 398.192 86.4205 397.403 86.4205H394.907V85.1179H397.264C397.764 85.1179 398.17 85.0317 398.482 84.8594C398.793 84.6837 399.022 84.4451 399.168 84.1435C399.314 83.8419 399.387 83.4988 399.387 83.1143C399.387 82.7299 399.314 82.3885 399.168 82.0902C399.022 81.7919 398.792 81.5582 398.477 81.3892C398.165 81.2202 397.754 81.1357 397.244 81.1357H395.315V90H393.779ZM404.768 90.169C404.285 90.169 403.847 90.0795 403.456 89.9006C403.065 89.7183 402.755 89.4548 402.526 89.1101C402.301 88.7654 402.188 88.3428 402.188 87.8423C402.188 87.4115 402.271 87.0568 402.437 86.7784C402.603 86.5 402.826 86.2796 403.108 86.1172C403.39 85.9548 403.705 85.8321 404.053 85.7493C404.401 85.6664 404.755 85.6035 405.116 85.5604C405.574 85.5073 405.945 85.4643 406.23 85.4311C406.515 85.3946 406.722 85.3366 406.852 85.2571C406.981 85.1776 407.045 85.0483 407.045 84.8693V84.8345C407.045 84.4003 406.923 84.0639 406.678 83.8253C406.436 83.5866 406.074 83.4673 405.594 83.4673C405.093 83.4673 404.699 83.5784 404.411 83.8004C404.125 84.0192 403.928 84.2628 403.819 84.5312L402.422 84.2131C402.588 83.7491 402.83 83.3745 403.148 83.0895C403.469 82.8011 403.839 82.5923 404.256 82.4631C404.674 82.3305 405.113 82.2642 405.574 82.2642C405.879 82.2642 406.202 82.3007 406.543 82.3736C406.888 82.4432 407.21 82.5724 407.508 82.7614C407.809 82.9503 408.056 83.2204 408.249 83.5717C408.441 83.9197 408.537 84.3722 408.537 84.929V90H407.085V88.956H407.026C406.929 89.1482 406.785 89.3371 406.593 89.5227C406.401 89.7083 406.154 89.8625 405.852 89.9851C405.551 90.1077 405.189 90.169 404.768 90.169ZM405.092 88.9759C405.503 88.9759 405.854 88.8946 406.146 88.7322C406.441 88.5698 406.664 88.3577 406.817 88.0959C406.973 87.8307 407.05 87.5473 407.05 87.2457V86.2614C406.997 86.3144 406.895 86.3641 406.742 86.4105C406.593 86.4536 406.422 86.4917 406.23 86.5249C406.038 86.5547 405.851 86.5829 405.668 86.6094C405.486 86.6326 405.334 86.6525 405.211 86.669C404.923 86.7055 404.659 86.7668 404.42 86.853C404.185 86.9392 403.996 87.0634 403.854 87.2259C403.714 87.3849 403.645 87.5971 403.645 87.8622C403.645 88.2301 403.781 88.5085 404.053 88.6974C404.324 88.883 404.671 88.9759 405.092 88.9759ZM411.183 92.8636C410.961 92.8636 410.759 92.8454 410.577 92.8089C410.394 92.7758 410.258 92.7393 410.169 92.6996L410.527 91.4815C410.799 91.5545 411.041 91.5859 411.253 91.576C411.465 91.5661 411.652 91.4865 411.814 91.3374C411.98 91.1882 412.126 90.9446 412.252 90.6065L412.436 90.0994L409.642 82.3636H411.233L413.167 88.2898H413.246L415.18 82.3636H416.776L413.629 91.0192C413.483 91.4169 413.298 91.7533 413.072 92.0284C412.847 92.3068 412.578 92.5156 412.267 92.6548C411.955 92.794 411.594 92.8636 411.183 92.8636ZM418.173 90V82.3636H419.6V83.6065H419.694C419.854 83.1856 420.114 82.8575 420.475 82.6222C420.836 82.3835 421.269 82.2642 421.773 82.2642C422.283 82.2642 422.711 82.3835 423.055 82.6222C423.403 82.8608 423.66 83.1889 423.826 83.6065H423.905C424.088 83.1989 424.378 82.8741 424.775 82.6321C425.173 82.3868 425.647 82.2642 426.197 82.2642C426.89 82.2642 427.455 82.4813 427.893 82.9155C428.333 83.3497 428.554 84.0043 428.554 84.8793V90H427.067V85.0185C427.067 84.5014 426.926 84.1269 426.645 83.8949C426.363 83.6629 426.027 83.5469 425.635 83.5469C425.152 83.5469 424.775 83.696 424.507 83.9943C424.238 84.2893 424.104 84.6688 424.104 85.1328V90H422.623V84.924C422.623 84.5097 422.493 84.1766 422.235 83.9247C421.976 83.6728 421.64 83.5469 421.226 83.5469C420.944 83.5469 420.684 83.6214 420.445 83.7706C420.21 83.9164 420.019 84.1203 419.873 84.3821C419.731 84.6439 419.66 84.9472 419.66 85.2919V90H418.173ZM433.837 90.1541C433.085 90.1541 432.437 89.9934 431.893 89.6719C431.353 89.3471 430.936 88.8913 430.641 88.3047C430.349 87.7147 430.203 87.0237 430.203 86.2315C430.203 85.4493 430.349 84.7599 430.641 84.1634C430.936 83.5668 431.347 83.1011 431.874 82.7663C432.404 82.4316 433.024 82.2642 433.733 82.2642C434.164 82.2642 434.581 82.3355 434.986 82.478C435.39 82.6205 435.753 82.8442 436.075 83.1491C436.396 83.4541 436.65 83.8501 436.835 84.3374C437.021 84.8213 437.114 85.4096 437.114 86.1023V86.6293H431.043V85.5156H435.657C435.657 85.1245 435.577 84.7782 435.418 84.4766C435.259 84.1716 435.036 83.9313 434.747 83.7557C434.462 83.58 434.127 83.4922 433.743 83.4922C433.325 83.4922 432.961 83.5949 432.649 83.8004C432.341 84.0026 432.102 84.2678 431.933 84.5959C431.768 84.9207 431.685 85.2737 431.685 85.6548V86.5249C431.685 87.0353 431.774 87.4695 431.953 87.8274C432.135 88.1854 432.389 88.4588 432.714 88.6477C433.039 88.8333 433.418 88.9261 433.852 88.9261C434.134 88.9261 434.391 88.8864 434.623 88.8068C434.855 88.724 435.055 88.6013 435.224 88.4389C435.393 88.2765 435.523 88.076 435.612 87.8374L437.019 88.0909C436.906 88.5052 436.704 88.8681 436.413 89.1797C436.124 89.4879 435.761 89.7282 435.324 89.9006C434.89 90.0696 434.394 90.1541 433.837 90.1541ZM440.249 85.4659V90H438.763V82.3636H440.19V83.6065H440.284C440.46 83.2022 440.735 82.8774 441.11 82.6321C441.487 82.3868 441.963 82.2642 442.536 82.2642C443.057 82.2642 443.512 82.3736 443.904 82.5923C444.295 82.8078 444.598 83.1293 444.813 83.5568C445.029 83.9844 445.137 84.513 445.137 85.1428V90H443.65V85.3217C443.65 84.7682 443.506 84.3357 443.218 84.0241C442.929 83.7093 442.533 83.5518 442.029 83.5518C441.685 83.5518 441.378 83.6264 441.11 83.7756C440.844 83.9247 440.634 84.1435 440.478 84.4318C440.326 84.7169 440.249 85.0616 440.249 85.4659ZM450.695 82.3636V83.5568H446.524V82.3636H450.695ZM447.642 80.5341H449.129V87.7578C449.129 88.0462 449.172 88.2633 449.258 88.4091C449.344 88.5516 449.455 88.6494 449.591 88.7024C449.73 88.7521 449.881 88.777 450.044 88.777C450.163 88.777 450.267 88.7687 450.357 88.7521C450.446 88.7356 450.516 88.7223 450.566 88.7124L450.834 89.9403C450.748 89.9735 450.625 90.0066 450.466 90.0398C450.307 90.0762 450.108 90.0961 449.869 90.0994C449.478 90.1061 449.114 90.0365 448.776 89.8906C448.438 89.7448 448.164 89.5194 447.955 89.2145C447.747 88.9096 447.642 88.5268 447.642 88.0661V80.5341Z" fill="#0C68F4"/>
<rect x="58" y="12" width="48" height="48" rx="24" fill="#78ABF9"/>
<path d="M82.0007 44.6667C78.8807 44.6667 76.334 42.12 76.334 39C76.334 38.4533 76.7873 38 77.334 38C77.8807 38 78.334 38.4533 78.334 39C78.334 41.0267 79.974 42.6667 82.0007 42.6667C84.0273 42.6667 85.6673 41.0267 85.6673 39C85.6673 38.4533 86.1207 38 86.6673 38C87.214 38 87.6673 38.4533 87.6673 39C87.6673 42.12 85.1207 44.6667 82.0007 44.6667Z" fill="white"/>
<path d="M72.9205 28.5066C72.6672 28.5066 72.4005 28.3999 72.2138 28.2133C71.8272 27.8266 71.8272 27.1866 72.2138 26.7999L77.0538 21.9599C77.4405 21.5733 78.0805 21.5733 78.4672 21.9599C78.8538 22.3466 78.8538 22.9866 78.4672 23.3733L73.6272 28.2133C73.4272 28.3999 73.1738 28.5066 72.9205 28.5066Z" fill="white"/>
<path d="M91.0808 28.5066C90.8275 28.5066 90.5741 28.4133 90.3741 28.2133L85.5341 23.3733C85.1475 22.9866 85.1475 22.3466 85.5341 21.9599C85.9208 21.5733 86.5608 21.5733 86.9475 21.9599L91.7875 26.7999C92.1741 27.1866 92.1741 27.8266 91.7875 28.2133C91.6008 28.3999 91.3341 28.5066 91.0808 28.5066Z" fill="white"/>
<path d="M92.946 34.1334C92.8527 34.1334 92.7593 34.1334 92.666 34.1334H92.3594H71.3327C70.3993 34.1467 69.3327 34.1467 68.5593 33.3734C67.946 32.7734 67.666 31.84 67.666 30.4667C67.666 26.8 70.346 26.8 71.626 26.8H92.3727C93.6527 26.8 96.3327 26.8 96.3327 30.4667C96.3327 31.8534 96.0527 32.7734 95.4394 33.3734C94.746 34.0667 93.8127 34.1334 92.946 34.1334ZM71.626 32.1334H92.6793C93.2794 32.1467 93.8393 32.1467 94.026 31.96C94.1194 31.8667 94.3193 31.5467 94.3193 30.4667C94.3193 28.96 93.946 28.8 92.3594 28.8H71.626C70.0393 28.8 69.666 28.96 69.666 30.4667C69.666 31.5467 69.8793 31.8667 69.9593 31.96C70.146 32.1334 70.7193 32.1334 71.306 32.1334H71.626Z" fill="white"/>
<path d="M85.8537 50.3333H77.8137C73.0403 50.3333 71.9737 47.4933 71.5603 45.0266L69.6803 33.4932C69.587 32.9466 69.9603 32.4399 70.507 32.3466C71.0403 32.2533 71.5603 32.6266 71.6537 33.1733L73.5337 44.6933C73.9203 47.0533 74.7203 48.3333 77.8137 48.3333H85.8537C89.2803 48.3333 89.667 47.1333 90.107 44.8133L92.347 33.1466C92.4537 32.5999 92.9737 32.2399 93.5203 32.3599C94.067 32.4666 94.4137 32.9866 94.307 33.5332L92.067 45.1999C91.547 47.9066 90.6803 50.3333 85.8537 50.3333Z" fill="white"/>
<path d="M108 36H164" stroke="#78ABF9" stroke-width="1.5" stroke-linecap="round"/>
<path d="M71.6399 82.1818C70.8217 82.1818 70.1172 81.9886 69.5263 81.6023C68.9354 81.2159 68.4808 80.6837 68.1626 80.0057C67.8445 79.3277 67.6854 78.553 67.6854 77.6818C67.6854 76.7955 67.8482 76.0133 68.174 75.3352C68.5036 74.6534 68.9619 74.1212 69.549 73.7386C70.1399 73.3523 70.8293 73.1591 71.6172 73.1591C72.2308 73.1591 72.7839 73.2727 73.2763 73.5C73.7687 73.7273 74.1721 74.0455 74.4865 74.4545C74.8009 74.8636 74.996 75.3409 75.0717 75.8864H73.7308C73.6286 75.4886 73.4013 75.1364 73.049 74.8295C72.7005 74.5189 72.2308 74.3636 71.6399 74.3636C71.1172 74.3636 70.6589 74.5 70.2649 74.7727C69.8748 75.0417 69.5698 75.4223 69.3501 75.9148C69.1342 76.4034 69.0263 76.9773 69.0263 77.6364C69.0263 78.3106 69.1323 78.8977 69.3445 79.3977C69.5604 79.8977 69.8634 80.286 70.2536 80.5625C70.6475 80.839 71.1096 80.9773 71.6399 80.9773C71.9884 80.9773 72.3047 80.9167 72.5888 80.7955C72.8729 80.6742 73.1134 80.5 73.3104 80.2727C73.5073 80.0455 73.6475 79.7727 73.7308 79.4545H75.0717C74.996 79.9697 74.8085 80.4337 74.5092 80.8466C74.2138 81.2557 73.8217 81.5814 73.3331 81.8239C72.8482 82.0625 72.2839 82.1818 71.6399 82.1818ZM79.6001 82.2045C79.0471 82.2045 78.5452 82.1004 78.0945 81.892C77.6437 81.6799 77.2857 81.375 77.0206 80.9773C76.7554 80.5758 76.6229 80.0909 76.6229 79.5227C76.6229 79.0227 76.7214 78.6174 76.9183 78.3068C77.1153 77.9924 77.3786 77.7462 77.7081 77.5682C78.0376 77.3902 78.4013 77.2576 78.799 77.1705C79.2005 77.0795 79.6039 77.0076 80.0092 76.9545C80.5395 76.8864 80.9695 76.8352 81.299 76.8011C81.6323 76.7633 81.8748 76.7008 82.0263 76.6136C82.1816 76.5265 82.2592 76.375 82.2592 76.1591V76.1136C82.2592 75.553 82.1058 75.1174 81.799 74.8068C81.496 74.4962 81.0357 74.3409 80.4183 74.3409C79.7782 74.3409 79.2763 74.4811 78.9126 74.7614C78.549 75.0417 78.2933 75.3409 78.1456 75.6591L76.8729 75.2045C77.1001 74.6742 77.4032 74.2614 77.782 73.9659C78.1645 73.6667 78.5812 73.4583 79.032 73.3409C79.4865 73.2197 79.9335 73.1591 80.3729 73.1591C80.6532 73.1591 80.9751 73.1932 81.3388 73.2614C81.7062 73.3258 82.0604 73.4602 82.4013 73.6648C82.746 73.8693 83.032 74.178 83.2592 74.5909C83.4865 75.0038 83.6001 75.5568 83.6001 76.25V82H82.2592V80.8182H82.1911C82.1001 81.0076 81.9486 81.2102 81.7365 81.4261C81.5244 81.642 81.2422 81.8258 80.8899 81.9773C80.5376 82.1288 80.1077 82.2045 79.6001 82.2045ZM79.8047 81C80.335 81 80.782 80.8958 81.1456 80.6875C81.513 80.4792 81.7895 80.2102 81.9751 79.8807C82.1645 79.5511 82.2592 79.2045 82.2592 78.8409V77.6136C82.2024 77.6818 82.0774 77.7443 81.8842 77.8011C81.6948 77.8542 81.4751 77.9015 81.2251 77.9432C80.9789 77.9811 80.7384 78.0152 80.5036 78.0455C80.2725 78.072 80.085 78.0947 79.9411 78.1136C79.5926 78.1591 79.2668 78.233 78.9638 78.3352C78.6645 78.4337 78.4221 78.5833 78.2365 78.7841C78.0547 78.9811 77.9638 79.25 77.9638 79.5909C77.9638 80.0568 78.1361 80.4091 78.4808 80.6477C78.8293 80.8826 79.2706 81 79.8047 81ZM86.0476 82V73.2727H87.343V74.5909H87.4339C87.593 74.1591 87.8809 73.8087 88.2976 73.5398C88.7143 73.2708 89.1839 73.1364 89.7067 73.1364C89.8052 73.1364 89.9283 73.1383 90.076 73.142C90.2237 73.1458 90.3355 73.1515 90.4112 73.1591V74.5227C90.3658 74.5114 90.2616 74.4943 90.0987 74.4716C89.9396 74.4451 89.7711 74.4318 89.593 74.4318C89.1688 74.4318 88.79 74.5208 88.4567 74.6989C88.1271 74.8731 87.8658 75.1155 87.6726 75.4261C87.4832 75.733 87.3885 76.0833 87.3885 76.4773V82H86.0476ZM96.343 73.2727V74.4091H91.8203V73.2727H96.343ZM93.1385 71.1818H94.4794V79.5C94.4794 79.8788 94.5343 80.1629 94.6442 80.3523C94.7578 80.5379 94.9018 80.6629 95.076 80.7273C95.254 80.7879 95.4415 80.8182 95.6385 80.8182C95.7862 80.8182 95.9074 80.8106 96.0021 80.7955C96.0968 80.7765 96.1726 80.7614 96.2294 80.75L96.5021 81.9545C96.4112 81.9886 96.2843 82.0227 96.1214 82.0568C95.9586 82.0947 95.7521 82.1136 95.5021 82.1136C95.1233 82.1136 94.7521 82.0322 94.3885 81.8693C94.0286 81.7064 93.7294 81.4583 93.4908 81.125C93.2559 80.7917 93.1385 80.3712 93.1385 79.8636V71.1818Z" fill="#78ABF9"/>
<path d="M164 36H220" stroke="#78ABF9" stroke-width="1.5" stroke-linecap="round"/>
<rect x="222" y="12" width="48" height="48" rx="24" fill="#78ABF9"/>
<path d="M247.333 39.6667H232.666C232.119 39.6667 231.666 39.2134 231.666 38.6667V28.0001C231.666 24.5067 234.506 21.6667 237.999 21.6667H249.999C250.546 21.6667 250.999 22.1201 250.999 22.6667V36.0001C250.999 38.0267 249.359 39.6667 247.333 39.6667ZM233.666 37.6667H247.333C248.253 37.6667 248.999 36.9201 248.999 36.0001V23.6667H237.999C235.613 23.6667 233.666 25.6134 233.666 28.0001V37.6667Z" fill="white"/>
<path d="M255.333 47.6667H253.999C253.453 47.6667 252.999 47.2134 252.999 46.6667C252.999 45.7467 252.253 45.0001 251.333 45.0001C250.413 45.0001 249.666 45.7467 249.666 46.6667C249.666 47.2134 249.213 47.6667 248.666 47.6667H243.333C242.786 47.6667 242.333 47.2134 242.333 46.6667C242.333 45.7467 241.586 45.0001 240.666 45.0001C239.746 45.0001 238.999 45.7467 238.999 46.6667C238.999 47.2134 238.546 47.6667 237.999 47.6667H236.666C233.906 47.6667 231.666 45.4267 231.666 42.6667V38.6667C231.666 38.1201 232.119 37.6667 232.666 37.6667H247.333C248.253 37.6667 248.999 36.9201 248.999 36.0001V26.6667C248.999 26.1201 249.453 25.6667 249.999 25.6667H252.453C253.773 25.6667 254.986 26.3734 255.639 27.5201L257.919 31.5068C258.093 31.8134 258.093 32.2001 257.919 32.5068C257.746 32.8134 257.413 33.0001 257.053 33.0001H255.333C255.146 33.0001 254.999 33.1467 254.999 33.3334V37.3334C254.999 37.5201 255.146 37.6667 255.333 37.6667H259.333C259.879 37.6667 260.333 38.1201 260.333 38.6667V42.6667C260.333 45.4267 258.093 47.6667 255.333 47.6667ZM254.866 45.6667H255.333C256.986 45.6667 258.333 44.3201 258.333 42.6667V39.6667H255.333C254.053 39.6667 252.999 38.6134 252.999 37.3334V33.3334C252.999 32.0534 254.039 31.0001 255.333 31.0001L253.906 28.5068C253.613 27.9868 253.053 27.6667 252.453 27.6667H250.999V36.0001C250.999 38.0267 249.359 39.6667 247.333 39.6667H233.666V42.6667C233.666 44.3201 235.013 45.6667 236.666 45.6667H237.133C237.573 44.1334 238.986 43.0001 240.666 43.0001C242.346 43.0001 243.759 44.1334 244.199 45.6667H247.813C248.253 44.1334 249.666 43.0001 251.346 43.0001C253.026 43.0001 254.426 44.1334 254.866 45.6667Z" fill="white"/>
<path d="M240.667 50.3333C238.64 50.3333 237 48.6933 237 46.6667C237 44.64 238.64 43 240.667 43C242.693 43 244.333 44.64 244.333 46.6667C244.333 48.6933 242.693 50.3333 240.667 50.3333ZM240.667 45C239.747 45 239 45.7467 239 46.6667C239 47.5867 239.747 48.3333 240.667 48.3333C241.587 48.3333 242.333 47.5867 242.333 46.6667C242.333 45.7467 241.587 45 240.667 45Z" fill="white"/>
<path d="M251.333 50.3333C249.306 50.3333 247.666 48.6933 247.666 46.6667C247.666 44.64 249.306 43 251.333 43C253.359 43 254.999 44.64 254.999 46.6667C254.999 48.6933 253.359 50.3333 251.333 50.3333ZM251.333 45C250.413 45 249.666 45.7467 249.666 46.6667C249.666 47.5867 250.413 48.3333 251.333 48.3333C252.253 48.3333 252.999 47.5867 252.999 46.6667C252.999 45.7467 252.253 45 251.333 45Z" fill="white"/>
<path d="M259.333 39.6667H255.333C254.053 39.6667 253 38.6133 253 37.3333V33.3333C253 32.0533 254.053 31 255.333 31H257.053C257.413 31 257.747 31.1867 257.92 31.5067L260.2 35.5067C260.28 35.6533 260.333 35.8267 260.333 36V38.6667C260.333 39.2133 259.88 39.6667 259.333 39.6667ZM255.333 33C255.147 33 255 33.1467 255 33.3333V37.3333C255 37.52 255.147 37.6667 255.333 37.6667H258.333V36.2667L256.467 33H255.333Z" fill="white"/>
<path d="M272 36H328" stroke="#78ABF9" stroke-width="1.5" stroke-linecap="round"/>
<path d="M220.601 74H219.192C219.108 73.5947 218.963 73.2386 218.754 72.9318C218.55 72.625 218.3 72.3674 218.004 72.1591C217.713 71.947 217.389 71.7879 217.033 71.6818C216.677 71.5758 216.305 71.5227 215.919 71.5227C215.214 71.5227 214.576 71.7008 214.004 72.0568C213.436 72.4129 212.983 72.9375 212.646 73.6307C212.313 74.3239 212.146 75.1742 212.146 76.1818C212.146 77.1894 212.313 78.0398 212.646 78.733C212.983 79.4261 213.436 79.9508 214.004 80.3068C214.576 80.6629 215.214 80.8409 215.919 80.8409C216.305 80.8409 216.677 80.7879 217.033 80.6818C217.389 80.5758 217.713 80.4186 218.004 80.2102C218.3 79.9981 218.55 79.7386 218.754 79.4318C218.963 79.1212 219.108 78.7652 219.192 78.3636H220.601C220.495 78.9583 220.302 79.4905 220.021 79.9602C219.741 80.4299 219.393 80.8295 218.976 81.1591C218.559 81.4848 218.091 81.733 217.572 81.9034C217.057 82.0739 216.506 82.1591 215.919 82.1591C214.927 82.1591 214.044 81.9167 213.271 81.4318C212.499 80.947 211.891 80.2576 211.447 79.3636C211.004 78.4697 210.783 77.4091 210.783 76.1818C210.783 74.9545 211.004 73.8939 211.447 73C211.891 72.1061 212.499 71.4167 213.271 70.9318C214.044 70.447 214.927 70.2045 215.919 70.2045C216.506 70.2045 217.057 70.2898 217.572 70.4602C218.091 70.6307 218.559 70.8807 218.976 71.2102C219.393 71.536 219.741 71.9337 220.021 72.4034C220.302 72.8693 220.495 73.4015 220.601 74ZM224.037 76.75V82H222.696V70.3636H224.037V74.6364H224.151C224.355 74.1856 224.662 73.8277 225.071 73.5625C225.484 73.2936 226.033 73.1591 226.719 73.1591C227.313 73.1591 227.834 73.2784 228.281 73.517C228.728 73.7519 229.075 74.1136 229.321 74.6023C229.571 75.0871 229.696 75.7045 229.696 76.4545V82H228.355V76.5455C228.355 75.8523 228.175 75.3163 227.815 74.9375C227.459 74.5549 226.965 74.3636 226.332 74.3636C225.893 74.3636 225.499 74.4564 225.151 74.642C224.806 74.8277 224.533 75.0985 224.332 75.4545C224.135 75.8106 224.037 76.2424 224.037 76.75ZM235.808 82.1818C234.967 82.1818 234.242 81.9962 233.632 81.625C233.026 81.25 232.558 80.7273 232.229 80.0568C231.903 79.3826 231.74 78.5985 231.74 77.7045C231.74 76.8106 231.903 76.0227 232.229 75.3409C232.558 74.6553 233.017 74.1212 233.604 73.7386C234.195 73.3523 234.884 73.1591 235.672 73.1591C236.126 73.1591 236.575 73.2348 237.018 73.3864C237.462 73.5379 237.865 73.7841 238.229 74.125C238.592 74.4621 238.882 74.9091 239.098 75.4659C239.314 76.0227 239.422 76.7083 239.422 77.5227V78.0909H232.695V76.9318H238.058C238.058 76.4394 237.96 76 237.763 75.6136C237.57 75.2273 237.293 74.9223 236.933 74.6989C236.577 74.4754 236.157 74.3636 235.672 74.3636C235.138 74.3636 234.676 74.4962 234.286 74.7614C233.899 75.0227 233.602 75.3636 233.393 75.7841C233.185 76.2045 233.081 76.6553 233.081 77.1364V77.9091C233.081 78.5682 233.195 79.1269 233.422 79.5852C233.653 80.0398 233.973 80.3864 234.382 80.625C234.791 80.8598 235.267 80.9773 235.808 80.9773C236.161 80.9773 236.479 80.928 236.763 80.8295C237.051 80.7273 237.299 80.5758 237.507 80.375C237.715 80.1705 237.876 79.9167 237.99 79.6136L239.286 79.9773C239.149 80.4167 238.92 80.803 238.598 81.1364C238.276 81.4659 237.878 81.7235 237.405 81.9091C236.931 82.0909 236.399 82.1818 235.808 82.1818ZM245.007 82.1818C244.189 82.1818 243.484 81.9886 242.893 81.6023C242.303 81.2159 241.848 80.6837 241.53 80.0057C241.212 79.3277 241.053 78.553 241.053 77.6818C241.053 76.7955 241.215 76.0133 241.541 75.3352C241.871 74.6534 242.329 74.1212 242.916 73.7386C243.507 73.3523 244.196 73.1591 244.984 73.1591C245.598 73.1591 246.151 73.2727 246.643 73.5C247.136 73.7273 247.539 74.0455 247.854 74.4545C248.168 74.8636 248.363 75.3409 248.439 75.8864H247.098C246.996 75.4886 246.768 75.1364 246.416 74.8295C246.068 74.5189 245.598 74.3636 245.007 74.3636C244.484 74.3636 244.026 74.5 243.632 74.7727C243.242 75.0417 242.937 75.4223 242.717 75.9148C242.501 76.4034 242.393 76.9773 242.393 77.6364C242.393 78.3106 242.5 78.8977 242.712 79.3977C242.928 79.8977 243.231 80.286 243.621 80.5625C244.015 80.839 244.477 80.9773 245.007 80.9773C245.356 80.9773 245.672 80.9167 245.956 80.7955C246.24 80.6742 246.481 80.5 246.678 80.2727C246.875 80.0455 247.015 79.7727 247.098 79.4545H248.439C248.363 79.9697 248.176 80.4337 247.876 80.8466C247.581 81.2557 247.189 81.5814 246.7 81.8239C246.215 82.0625 245.651 82.1818 245.007 82.1818ZM251.649 78.8182L251.626 77.1591H251.899L255.717 73.2727H257.376L253.308 77.3864H253.195L251.649 78.8182ZM250.399 82V70.3636H251.74V82H250.399ZM255.945 82L252.536 77.6818L253.49 76.75L257.649 82H255.945ZM262.288 82.1818C261.5 82.1818 260.809 81.9943 260.214 81.6193C259.624 81.2443 259.161 80.7197 258.828 80.0455C258.499 79.3712 258.334 78.5833 258.334 77.6818C258.334 76.7727 258.499 75.9792 258.828 75.3011C259.161 74.6231 259.624 74.0966 260.214 73.7216C260.809 73.3466 261.5 73.1591 262.288 73.1591C263.076 73.1591 263.766 73.3466 264.357 73.7216C264.951 74.0966 265.413 74.6231 265.743 75.3011C266.076 75.9792 266.243 76.7727 266.243 77.6818C266.243 78.5833 266.076 79.3712 265.743 80.0455C265.413 80.7197 264.951 81.2443 264.357 81.6193C263.766 81.9943 263.076 82.1818 262.288 82.1818ZM262.288 80.9773C262.887 80.9773 263.379 80.8239 263.766 80.517C264.152 80.2102 264.438 79.8068 264.624 79.3068C264.809 78.8068 264.902 78.2652 264.902 77.6818C264.902 77.0985 264.809 76.5549 264.624 76.0511C264.438 75.5473 264.152 75.1402 263.766 74.8295C263.379 74.5189 262.887 74.3636 262.288 74.3636C261.69 74.3636 261.197 74.5189 260.811 74.8295C260.425 75.1402 260.139 75.5473 259.953 76.0511C259.768 76.5549 259.675 77.0985 259.675 77.6818C259.675 78.2652 259.768 78.8068 259.953 79.3068C260.139 79.8068 260.425 80.2102 260.811 80.517C261.197 80.8239 261.69 80.9773 262.288 80.9773ZM273.79 78.4318V73.2727H275.131V82H273.79V80.5227H273.699C273.494 80.9659 273.176 81.3428 272.744 81.6534C272.313 81.9602 271.767 82.1136 271.108 82.1136C270.562 82.1136 270.078 81.9943 269.653 81.7557C269.229 81.5133 268.896 81.1496 268.653 80.6648C268.411 80.1761 268.29 79.5606 268.29 78.8182V73.2727H269.631V78.7273C269.631 79.3636 269.809 79.8712 270.165 80.25C270.525 80.6288 270.983 80.8182 271.54 80.8182C271.873 80.8182 272.212 80.733 272.557 80.5625C272.905 80.392 273.197 80.1307 273.432 79.7784C273.67 79.4261 273.79 78.9773 273.79 78.4318ZM281.382 73.2727V74.4091H276.859V73.2727H281.382ZM278.178 71.1818H279.518V79.5C279.518 79.8788 279.573 80.1629 279.683 80.3523C279.797 80.5379 279.941 80.6629 280.115 80.7273C280.293 80.7879 280.481 80.8182 280.678 80.8182C280.825 80.8182 280.946 80.8106 281.041 80.7955C281.136 80.7765 281.212 80.7614 281.268 80.75L281.541 81.9545C281.45 81.9886 281.323 82.0227 281.161 82.0568C280.998 82.0947 280.791 82.1136 280.541 82.1136C280.162 82.1136 279.791 82.0322 279.428 81.8693C279.068 81.7064 278.768 81.4583 278.53 81.125C278.295 80.7917 278.178 80.3712 278.178 79.8636V71.1818Z" fill="#78ABF9"/>
</svg>
